<svg xmlns="http://www.w3.org/2000/svg" id="Camada_2" data-name="Camada 2" viewBox="0 0 24.55 24.55"><defs><style>      .cls-1 {        fill: #fff;      }      .cls-2 {        fill: #5d91fe;      }    </style></defs><g id="Camada_1-2" data-name="Camada 1"><circle id="Background" class="cls-2" cx="12.27" cy="12.27" r="12.27"></circle><path class="cls-1" d="m9.14,17.89c0,.43-.35.78-.79.78h-2.15c-.43,0-.78-.35-.78-.78v-6.14c0-.43.35-.78.78-.78h2.15c.43,0,.78.35.79.78v6.14Zm9.17-4.81c.46.37.53,1.04.16,1.51-.15.19-.36.32-.59.37.46.37.54,1.04.17,1.5-.15.19-.36.32-.6.38.46.37.53,1.05.16,1.51-.2.25-.51.4-.83.4l-6.08-.07c-.43,0-.78-.35-.78-.78v-6.14c0-.97,3.1-2.76,3.27-3.71.1-.63-.03-2.22.39-2.22.72,0,1.65.28,1.65,1.88,0,1.42-.93,3.26-.93,3.26h3.76c.59,0,1.07.48,1.07,1.07,0,.5-.34.93-.83,1.04h0Z"></path></g></svg>